<svg id="Layer_2" data-name="Layer 2" xmlns="http://www.w3.org/2000/svg" viewBox="0 0 594.87 1031.85"><defs><style>.cls-1{fill:none;stroke:#00b0da;stroke-linejoin:round;stroke-width:3px;fill-rule:evenodd;}</style></defs><polygon class="cls-1" points="130.24 558.35 191.09 406.23 251.93 558.35 130.24 558.35"/><polygon class="cls-1" points="251.93 254.11 191.09 406.23 130.24 254.11 251.93 254.11"/><polygon class="cls-1" points="38.96 467.07 191.09 406.23 130.24 558.35 38.96 467.07"/><polygon class="cls-1" points="343.21 345.38 191.09 406.23 251.93 254.1 343.21 345.38"/><polygon class="cls-1" points="38.96 345.38 191.09 406.23 38.96 467.08 38.96 345.38"/><polygon class="cls-1" points="343.21 467.08 191.09 406.23 343.21 345.38 343.21 467.08"/><polygon class="cls-1" points="130.24 254.1 191.09 406.23 38.96 345.38 130.24 254.1"/><polygon class="cls-1" points="251.93 558.35 191.09 406.23 343.21 467.07 251.93 558.35"/><polygon class="cls-1" points="343.21 771.33 404.06 619.2 464.9 771.33 343.21 771.33"/><polygon class="cls-1" points="464.9 467.08 404.06 619.2 343.21 467.08 464.9 467.08"/><polygon class="cls-1" points="251.93 680.05 404.06 619.2 343.21 771.32 251.93 680.05"/><polygon class="cls-1" points="556.18 558.35 404.06 619.2 464.9 467.08 556.18 558.35"/><polygon class="cls-1" points="251.93 558.36 404.06 619.2 251.93 680.06 251.93 558.36"/><polygon class="cls-1" points="556.18 680.05 404.06 619.2 556.18 558.36 556.18 680.05"/><polygon class="cls-1" points="343.21 467.08 404.06 619.2 251.93 558.35 343.21 467.08"/><polygon class="cls-1" points="464.9 771.32 404.06 619.2 556.18 680.05 464.9 771.32"/><polygon class="cls-1" points="130.24 984.3 191.09 832.18 251.93 984.3 130.24 984.3"/><polygon class="cls-1" points="251.93 680.06 191.09 832.18 130.24 680.06 251.93 680.06"/><polygon class="cls-1" points="38.96 893.03 191.09 832.18 130.24 984.3 38.96 893.03"/><polygon class="cls-1" points="343.21 771.33 191.09 832.18 251.93 680.06 343.21 771.33"/><polygon class="cls-1" points="38.96 771.33 191.09 832.18 38.96 893.03 38.96 771.33"/><polygon class="cls-1" points="343.21 893.03 191.09 832.18 343.21 771.34 343.21 893.03"/><polygon class="cls-1" points="130.24 680.06 191.09 832.18 38.96 771.33 130.24 680.06"/><polygon class="cls-1" points="251.93 984.3 191.09 832.18 343.21 893.03 251.93 984.3"/><polygon class="cls-1" points="343.21 347.04 404.06 194.92 464.9 347.04 343.21 347.04"/><polygon class="cls-1" points="464.9 42.79 404.06 194.92 343.21 42.79 464.9 42.79"/><polygon class="cls-1" points="251.93 255.76 404.06 194.92 343.21 347.04 251.93 255.76"/><polygon class="cls-1" points="556.18 134.06 404.06 194.92 464.9 42.79 556.18 134.06"/><polygon class="cls-1" points="251.93 134.07 404.06 194.92 251.93 255.77 251.93 134.07"/><polygon class="cls-1" points="556.18 255.77 404.06 194.92 556.18 134.07 556.18 255.77"/><polygon class="cls-1" points="343.21 42.79 404.06 194.91 251.93 134.06 343.21 42.79"/><polygon class="cls-1" points="464.9 347.04 404.06 194.91 556.18 255.76 464.9 347.04"/></svg>